<svg xmlns="http://www.w3.org/2000/svg" width="104.013" height="104.012" viewBox="0 0 104.013 104.012">
    <defs>
        <style>
            .prefix__cls-2{fill:#2c2f4b}
        </style>
    </defs>
    <g id="prefix__Outline" transform="translate(-15.997 -15.999)" style="opacity:.3">
        <path id="prefix__Path_96" d="M257.128 31.909l-22.536-15.6a1.734 1.734 0 0 0-1.974 0l-4.563 3.159h-29.988a6.067 6.067 0 0 0 0 12.135h12.46l-.445.308a1.734 1.734 0 0 0-.747 1.425v53.74h3.465V34.242l3.816-2.642h12.105a5.2 5.2 0 1 0 0-3.467h-7.1l11.979-8.292 20.8 14.4v68.433h-24.262v3.467h26a1.734 1.734 0 0 0 1.734-1.734V33.334a1.735 1.735 0 0 0-.744-1.425zM233.6 28.134a1.734 1.734 0 1 1-1.734 1.734 1.734 1.734 0 0 1 1.734-1.734zm-35.537 0a2.6 2.6 0 0 1 0-5.2h24.98l-7.512 5.2z" className="prefix__cls-2" data-name="Path 96" transform="translate(-137.864)"/>
        <path id="prefix__Rectangle_58" d="M0 0H3V14H0z" className="prefix__cls-2" data-name="Rectangle 58" transform="translate(109.998 81.999)"/>
        <path id="prefix__Rectangle_59" d="M0 0H3V14H0z" className="prefix__cls-2" data-name="Rectangle 59" transform="translate(102.998 81.999)"/>
        <path id="prefix__Rectangle_60" d="M0 0H3V14H0z" className="prefix__cls-2" data-name="Rectangle 60" transform="translate(95.998 81.999)"/>
        <path id="prefix__Path_97" d="M304.746 151.581l1.734 1.2 1.971-2.853-.654-.452 1.223-3.578a1.73 1.73 0 0 0 0-1.121l-1.22-3.577 3.238-2.236a1.734 1.734 0 0 0 .655-.867l1.246-3.646h4.082a1.735 1.735 0 0 0 .985-.307l3.332-2.3 3.332 2.3a1.735 1.735 0 0 0 .985.307h4.082l1.246 3.646a1.733 1.733 0 0 0 .655.867l3.238 2.236-1.223 3.578a1.73 1.73 0 0 0 0 1.121l1.223 3.578-3.238 2.236a1.733 1.733 0 0 0-.655.867l-1.246 3.646h-4.087a1.735 1.735 0 0 0-.985.307l-1.807 1.249 1.971 2.853 1.363-.941h4.781a1.734 1.734 0 0 0 1.641-1.173l1.462-4.278 3.846-2.657a1.734 1.734 0 0 0 .655-1.987l-1.456-4.26 1.456-4.258a1.733 1.733 0 0 0-.655-1.987l-3.846-2.657-1.462-4.278a1.734 1.734 0 0 0-1.641-1.173h-4.781l-3.873-2.675a1.733 1.733 0 0 0-1.971 0l-3.873 2.675h-4.781a1.734 1.734 0 0 0-1.641 1.173l-1.462 4.278-3.846 2.657a1.733 1.733 0 0 0-.655 1.987l1.456 4.258-1.456 4.258a1.734 1.734 0 0 0 .656 1.984z" className="prefix__cls-2" data-name="Path 97" transform="translate(-225.592 -87.732)"/>
        <path id="prefix__Path_98" d="M18.864 252.238l5.8 27.53v13.688a1.734 1.734 0 0 0 1.734 1.734h58.94a1.734 1.734 0 0 0 1.734-1.734v-13.688l5.8-27.53a6.951 6.951 0 1 0-9.436-1.252l-4.473 10.979a8.347 8.347 0 0 1-6.114 5.212 8.612 8.612 0 0 1-10.383-6.6l-1.953-8.816a6.934 6.934 0 1 0-9.293 0l-1.952 8.813a8.674 8.674 0 0 1-16.5 1.387L28.3 250.986a6.865 6.865 0 0 0 1.567-4.336 6.934 6.934 0 1 0-11 5.588zm69.943-9.055a3.467 3.467 0 1 1-3.467 3.467 3.467 3.467 0 0 1 3.467-3.467zm-32.937 0a3.467 3.467 0 1 1-3.47 3.467 3.467 3.467 0 0 1 3.467-3.467zm-15.137 27.649c.358 0 .721-.015 1.083-.046a11.943 11.943 0 0 0 10.839-9.459l1.751-7.9a6.687 6.687 0 0 0 2.925 0l1.752 7.906a12.025 12.025 0 0 0 11.973 9.5 12.372 12.372 0 0 0 2.511-.255 11.876 11.876 0 0 0 8.611-7.3L86.32 253.1a6.871 6.871 0 0 0 2.486.48c.085 0 .163-.022.247-.025l-5.12 24.294H31.6v3.467h52.006v10.4H28.133v-12.128a1.75 1.75 0 0 0-.037-.357l-5.41-25.671c.084 0 .162.025.247.025a6.871 6.871 0 0 0 2.486-.48l4.143 10.166a11.911 11.911 0 0 0 11.171 7.561zm-17.8-27.649a3.467 3.467 0 1 1-3.467 3.467 3.467 3.467 0 0 1 3.467-3.467z" className="prefix__cls-2" data-name="Path 98" transform="translate(0 -175.178)"/>
        <path id="prefix__Path_99" d="M65.187 178.313a9.27 9.27 0 0 1 5.837 5.837 1.734 1.734 0 0 0 3.289 0 9.27 9.27 0 0 1 5.837-5.837 1.734 1.734 0 0 0 0-3.289 9.27 9.27 0 0 1-5.837-5.837 1.734 1.734 0 0 0-3.289 0 9.27 9.27 0 0 1-5.837 5.837 1.734 1.734 0 0 0 0 3.289zm7.482-4.772a12.817 12.817 0 0 0 3.127 3.127 12.817 12.817 0 0 0-3.127 3.127 12.817 12.817 0 0 0-3.127-3.127 12.817 12.817 0 0 0 3.127-3.126z" className="prefix__cls-2" data-name="Path 99" transform="translate(-37.602 -119.065)"/>
    </g>
</svg>
