<svg xmlns="http://www.w3.org/2000/svg" width="83.6" height="104.5" viewBox="0 0 83.6 104.5">
    <defs>
        <style>
            .prefix__cls-2{fill:#2c2f4b}
        </style>
    </defs>
    <g id="prefix__code" transform="translate(-48)" style="opacity:.3">
        <g id="prefix__Group_123" data-name="Group 123" transform="translate(48)">
            <g id="prefix__Group_122" data-name="Group 122">
                <path id="prefix__Path_107" d="M122.892 0H56.708A8.719 8.719 0 0 0 48 8.708v47.025a8.719 8.719 0 0 0 8.708 8.708h23.816l-2.487 8.709h-5.654v3.483h34.833V73.15h-5.653l-2.487-8.708h23.816a8.719 8.719 0 0 0 8.708-8.708V8.708A8.719 8.719 0 0 0 122.892 0zM81.659 73.15l2.487-8.708h11.307l2.487 8.708zm46.457-17.417a5.225 5.225 0 0 1-5.225 5.225H56.708a5.225 5.225 0 0 1-5.225-5.225V52.25h76.633zm0-6.967H51.483V8.708a5.225 5.225 0 0 1 5.225-5.225h66.183a5.225 5.225 0 0 1 5.225 5.225z" className="prefix__cls-2" data-name="Path 107" transform="translate(-48)"/>
            </g>
        </g>
        <g id="prefix__Group_125" data-name="Group 125" transform="translate(53.225 80.117)">
            <g id="prefix__Group_124" data-name="Group 124">
                <path id="prefix__Path_108" d="M122.508 368H73.742A1.742 1.742 0 0 0 72 369.742v20.9a1.742 1.742 0 0 0 1.742 1.742h48.767a1.742 1.742 0 0 0 1.742-1.742v-20.9a1.742 1.742 0 0 0-1.743-1.742zm-1.742 20.9H75.483v-17.417h45.283z" className="prefix__cls-2" data-name="Path 108" transform="translate(-72 -368)"/>
            </g>
        </g>
        <g id="prefix__Group_127" data-name="Group 127" transform="translate(60.192 94.05)">
            <g id="prefix__Group_126" data-name="Group 126">
                <path id="prefix__Rectangle_61" d="M0 0H4V4H0z" className="prefix__cls-2" data-name="Rectangle 61" transform="translate(-.192 -.05)"/>
            </g>
        </g>
        <g id="prefix__Group_129" data-name="Group 129" transform="translate(60.192 87.083)">
            <g id="prefix__Group_128" data-name="Group 128">
                <path id="prefix__Rectangle_62" d="M0 0H4V4H0z" className="prefix__cls-2" data-name="Rectangle 62" transform="translate(-.192 -.083)"/>
            </g>
        </g>
        <g id="prefix__Group_131" data-name="Group 131" transform="translate(67.158 87.083)">
            <g id="prefix__Group_130" data-name="Group 130">
                <path id="prefix__Rectangle_63" d="M0 0H4V4H0z" className="prefix__cls-2" data-name="Rectangle 63" transform="translate(-.158 -.083)"/>
            </g>
        </g>
        <g id="prefix__Group_133" data-name="Group 133" transform="translate(74.125 87.083)">
            <g id="prefix__Group_132" data-name="Group 132">
                <path id="prefix__Rectangle_64" d="M0 0H4V4H0z" className="prefix__cls-2" data-name="Rectangle 64" transform="translate(-.125 -.083)"/>
            </g>
        </g>
        <g id="prefix__Group_135" data-name="Group 135" transform="translate(88.058 87.083)">
            <g id="prefix__Group_134" data-name="Group 134">
                <path id="prefix__Rectangle_65" d="M0 0H4V4H0z" className="prefix__cls-2" data-name="Rectangle 65" transform="translate(-.058 -.083)"/>
            </g>
        </g>
        <g id="prefix__Group_137" data-name="Group 137" transform="translate(81.092 87.083)">
            <g id="prefix__Group_136" data-name="Group 136">
                <path id="prefix__Rectangle_66" d="M0 0H4V4H0z" className="prefix__cls-2" data-name="Rectangle 66" transform="translate(-.092 -.083)"/>
            </g>
        </g>
        <g id="prefix__Group_139" data-name="Group 139" transform="translate(95.025 94.05)">
            <g id="prefix__Group_138" data-name="Group 138">
                <path id="prefix__Rectangle_67" d="M0 0H4V4H0z" className="prefix__cls-2" data-name="Rectangle 67" transform="translate(-.025 -.05)"/>
            </g>
        </g>
        <g id="prefix__Group_141" data-name="Group 141" transform="translate(95.025 87.083)">
            <g id="prefix__Group_140" data-name="Group 140">
                <path id="prefix__Rectangle_68" d="M0 0H4V4H0z" className="prefix__cls-2" data-name="Rectangle 68" transform="translate(-.025 -.083)"/>
            </g>
        </g>
        <g id="prefix__Group_143" data-name="Group 143" transform="translate(67.158 94.05)">
            <g id="prefix__Group_142" data-name="Group 142">
                <path id="prefix__Rectangle_69" d="M0 0H25V4H0z" className="prefix__cls-2" data-name="Rectangle 69" transform="translate(-.158 -.05)"/>
            </g>
        </g>
        <g id="prefix__Group_145" data-name="Group 145" transform="translate(108.958 80.117)">
            <g id="prefix__Group_144" data-name="Group 144">
                <path id="prefix__Path_109" d="M336.708 368a8.708 8.708 0 0 0-8.708 8.708v6.967a8.708 8.708 0 1 0 17.417 0v-6.967a8.708 8.708 0 0 0-8.709-8.708zm5.225 15.675a5.225 5.225 0 1 1-10.45 0v-6.967a5.225 5.225 0 0 1 10.45 0z" className="prefix__cls-2" data-name="Path 109" transform="translate(-328 -368)"/>
            </g>
        </g>
        <g id="prefix__Group_147" data-name="Group 147" transform="translate(115.925 87.083)">
            <g id="prefix__Group_146" data-name="Group 146">
                <path id="prefix__Rectangle_70" d="M0 0H3V4H0z" className="prefix__cls-2" data-name="Rectangle 70" transform="translate(.075 -.083)"/>
            </g>
        </g>
        <g id="prefix__Group_149" data-name="Group 149" transform="translate(84.628 15.233)">
            <g id="prefix__Group_148" data-name="Group 148">
                <path id="prefix__Rectangle_71" d="M0 0H25.348V3.482H0z" className="prefix__cls-2" data-name="Rectangle 71" transform="rotate(-74.032 16.16 12.184)"/>
            </g>
        </g>
        <g id="prefix__Group_151" data-name="Group 151" transform="translate(67.159 17.821)">
            <g id="prefix__Group_150" data-name="Group 150">
                <path id="prefix__Path_110" d="M149.309 84.531l-2.229-2.675-10.45 8.708a1.742 1.742 0 0 0 0 2.675l10.45 8.708 2.229-2.675-8.844-7.372z" className="prefix__cls-2" data-name="Path 110" transform="translate(-136.004 -81.856)"/>
            </g>
        </g>
        <g id="prefix__Group_153" data-name="Group 153" transform="translate(99.135 17.821)">
            <g id="prefix__Group_152" data-name="Group 152">
                <path id="prefix__Path_111" d="M295.781 90.786a1.74 1.74 0 0 0-.222-.222l-10.45-8.708-2.229 2.675 8.844 7.371-8.844 7.371 2.229 2.675 10.45-8.708a1.742 1.742 0 0 0 .222-2.454z" className="prefix__cls-2" data-name="Path 111" transform="translate(-282.88 -81.856)"/>
            </g>
        </g>
    </g>
</svg>
