<svg xmlns="http://www.w3.org/2000/svg" width="104.477" height="104.464" viewBox="0 0 104.477 104.464">
    <defs>
        <style>
            .prefix__cls-2{fill:#2c2f4b}
        </style>
    </defs>
    <g id="prefix__Page-1" style="opacity:.3">
        <g id="prefix___027---Good-User-Experience" data-name="027---Good-User-Experience">
            <path id="prefix__Shape" d="M87.064 56.748V6.965A6.965 6.965 0 0 0 80.1 0H6.965A6.965 6.965 0 0 0 0 6.965v83.582a6.965 6.965 0 0 0 6.965 6.965h56.106a24.364 24.364 0 1 0 23.993-40.764zM6.965 3.483H80.1a3.483 3.483 0 0 1 3.483 3.483V20.9h-80.1V6.965a3.483 3.483 0 0 1 3.482-3.482zM3.483 90.547V24.378h80.1V56a24.331 24.331 0 0 0-23.46 38.03H6.965a3.483 3.483 0 0 1-3.482-3.483zM80.1 100.994a20.9 20.9 0 1 1 20.9-20.9 20.9 20.9 0 0 1-20.9 20.9z" className="prefix__cls-2"/>
            <path id="prefix__Shape-2" d="M9.224 14.448A5.224 5.224 0 1 0 4 9.224a5.224 5.224 0 0 0 5.224 5.224zm0-6.965a1.741 1.741 0 1 1-1.741 1.741 1.741 1.741 0 0 1 1.741-1.741z" className="prefix__cls-2" data-name="Shape" transform="translate(2.965 2.965)"/>
            <path id="prefix__Shape-3" d="M17.224 14.448A5.224 5.224 0 1 0 12 9.224a5.224 5.224 0 0 0 5.224 5.224zm0-6.965a1.741 1.741 0 1 1-1.741 1.741 1.741 1.741 0 0 1 1.741-1.741z" className="prefix__cls-2" data-name="Shape" transform="translate(8.895 2.965)"/>
            <path id="prefix__Shape-4" d="M35.224 14.448h17.413a5.224 5.224 0 0 0 0-10.448H35.224a5.224 5.224 0 0 0 0 10.448zm0-6.965h17.413a1.741 1.741 0 0 1 0 3.483H35.224a1.741 1.741 0 0 1 0-3.483z" className="prefix__cls-2" data-name="Shape" transform="translate(22.238 2.965)"/>
            <path id="prefix__Shape-5" d="M22.965 34.413a6.965 6.965 0 0 0 6.965-6.965v-8.707a1.741 1.741 0 1 0-3.483 0v8.706a3.483 3.483 0 1 1-6.965 0v-8.706a1.741 1.741 0 1 0-3.483 0v8.706a6.965 6.965 0 0 0 6.966 6.966z" className="prefix__cls-2" data-name="Shape" transform="translate(11.86 12.602)"/>
            <path id="prefix__Shape-6" d="M26.7 34.065a1.741 1.741 0 0 0 2.438-.348l3.831-5.107 3.831 5.106a1.741 1.741 0 0 0 2.786-2.09l-4.44-5.92 4.44-5.92A1.741 1.741 0 0 0 36.8 17.7l-3.835 5.1-3.831-5.1a1.741 1.741 0 0 0-2.786 2.09l4.44 5.92-4.44 5.92a1.741 1.741 0 0 0 .348 2.438z" className="prefix__cls-2" data-name="Shape" transform="translate(19.273 12.602)"/>
            <path id="prefix__Shape-7" d="M9.224 50.9h13.93a5.224 5.224 0 0 0 5.224-5.224V35.224A5.224 5.224 0 0 0 23.154 30H9.224A5.224 5.224 0 0 0 4 35.224v10.448A5.224 5.224 0 0 0 9.224 50.9zm-1.741-5.228V35.457l14.341 11.956h-12.6a1.741 1.741 0 0 1-1.741-1.741zM24.9 35.224v10.214L10.554 33.483h12.6a1.741 1.741 0 0 1 1.746 1.741z" className="prefix__cls-2" data-name="Shape" transform="translate(2.965 22.238)"/>
            <path id="prefix__Shape-8" d="M20 31.741a1.741 1.741 0 0 0 1.741 1.741H49.6a1.741 1.741 0 1 0 0-3.482H21.741A1.741 1.741 0 0 0 20 31.741z" className="prefix__cls-2" data-name="Shape" transform="translate(14.826 22.238)"/>
            <path id="prefix__Shape-9" d="M47.532 44H5.741a1.741 1.741 0 1 0 0 3.483h41.791a1.741 1.741 0 1 0 0-3.483z" className="prefix__cls-2" data-name="Shape" transform="translate(2.965 32.616)"/>
            <path id="prefix__Shape-10" d="M37.084 48H5.741a1.741 1.741 0 1 0 0 3.483h31.343a1.741 1.741 0 0 0 0-3.483z" className="prefix__cls-2" data-name="Shape" transform="translate(2.965 35.581)"/>
            <path id="prefix__Shape-11" d="M40.9 35H21.741a1.741 1.741 0 1 0 0 3.483H40.9a1.741 1.741 0 1 0 0-3.483z" className="prefix__cls-2" data-name="Shape" transform="translate(14.826 25.945)"/>
            <path id="prefix__Shape-12" d="M37.413 40H21.741a1.741 1.741 0 1 0 0 3.483h15.672a1.741 1.741 0 1 0 0-3.483z" className="prefix__cls-2" data-name="Shape" transform="translate(14.826 29.651)"/>
            <path id="prefix__Shape-13" d="M50.93 45.965a6.965 6.965 0 1 0-6.965 6.965 6.965 6.965 0 0 0 6.965-6.965zm-10.448 0a3.483 3.483 0 1 1 5.224 3v-1.259a1.741 1.741 0 1 0-3.483 0v1.257a3.47 3.47 0 0 1-1.741-3z" className="prefix__cls-2" data-name="Shape" transform="translate(27.427 28.91)"/>
            <path id="prefix__Shape-14" d="M53.965 39a6.965 6.965 0 1 0 6.965 6.965A6.965 6.965 0 0 0 53.965 39zm1.741 9.964v-1.258a1.741 1.741 0 0 0-3.483 0v1.257a3.483 3.483 0 1 1 3.483 0z" className="prefix__cls-2" data-name="Shape" transform="translate(34.84 28.91)"/>
            <path id="prefix__Shape-15" d="M54.93 49H44.483A3.483 3.483 0 0 0 41 52.483a8.706 8.706 0 0 0 17.413 0A3.483 3.483 0 0 0 54.93 49zm-5.224 8.706a5.224 5.224 0 0 1-5.224-5.224H54.93a5.224 5.224 0 0 1-5.224 5.224z" className="prefix__cls-2" data-name="Shape" transform="translate(30.392 36.323)"/>
        </g>
    </g>
</svg>
