<svg xmlns="http://www.w3.org/2000/svg" width="107.307" height="104.559" viewBox="0 0 107.307 104.559">
    <defs>
        <style>
            .prefix__cls-2{fill:#2c2f4b}
        </style>
    </defs>
    <g id="prefix__graph" transform="translate(0 -6.558)" style="opacity:.3">
        <path id="prefix__Path_112" d="M143.638 93.54a5.246 5.246 0 1 0-4.186-2.093l-8.609 12.03a5.225 5.225 0 0 0-5.2 1.145l-5.738-3.256a5.24 5.24 0 1 0-10.244 0l-5.738 3.256a5.232 5.232 0 1 0 1.556 2.732l5.738-3.256a5.226 5.226 0 0 0 7.133 0l5.738 3.256a5.24 5.24 0 1 0 9.309-2.045l8.609-12.03a5.223 5.223 0 0 0 1.632.261zm0-7.336a2.1 2.1 0 1 1-2.1 2.1 2.1 2.1 0 0 1 2.1-2.104zm-43.281 24.347a2.1 2.1 0 1 1 2.1-2.1 2.1 2.1 0 0 1-2.1 2.101zm14.427-8.192a2.1 2.1 0 1 1 2.1-2.1 2.1 2.1 0 0 1-2.1 2.102zm14.427 8.192a2.1 2.1 0 1 1 2.1-2.1 2.1 2.1 0 0 1-2.1 2.101z" className="prefix__cls-2" data-name="Path 112" transform="translate(-75.183 -60.469)"/>
        <path id="prefix__Path_113" d="M87.773 110.714H4.446a1.3 1.3 0 0 1-1.3-1.3V44.562a1.3 1.3 0 0 1 1.3-1.3h7.41a1.572 1.572 0 1 0 0-3.144h-7.41A4.451 4.451 0 0 0 0 44.562v64.85a4.451 4.451 0 0 0 4.446 4.446h10.839v3.459a3.578 3.578 0 0 0 3.574 3.574h15.734l-7.407 14.461a1.572 1.572 0 1 0 2.8 1.433l8.141-15.894H55.5l8.141 15.894a1.572 1.572 0 1 0 2.8-1.433l-7.407-14.461h15.737a3.578 3.578 0 0 0 3.574-3.574v-3.459h9.428a1.572 1.572 0 0 0 0-3.144zm-12.572 6.6a.431.431 0 0 1-.43.43H18.859a.431.431 0 0 1-.43-.43v-3.459H75.2z" className="prefix__cls-2" data-name="Path 113" transform="translate(0 -26.525)"/>
        <path id="prefix__Path_114" d="M80.643 16.735h71.039a1.3 1.3 0 0 1 1.3 1.3v14.948a1.572 1.572 0 1 0 3.144 0V18.038a4.451 4.451 0 0 0-4.446-4.446h-33.642V10.5a3.948 3.948 0 0 0-3.944-3.944h-9.561a3.948 3.948 0 0 0-3.943 3.944v3.09H80.643a1.572 1.572 0 1 0 0 3.144zm23.09-6.233a.8.8 0 0 1 .8-.8h9.561a.8.8 0 0 1 .8.8v3.09h-11.161V10.5z" className="prefix__cls-2" data-name="Path 114" transform="translate(-62.499)"/>
        <path id="prefix__Path_115" d="M98.974 267.576a1.572 1.572 0 0 0-1.572 1.572v13.89a1.572 1.572 0 0 0 1.572 1.572h6.377a1.572 1.572 0 0 0 1.572-1.572v-13.89a1.572 1.572 0 0 0-1.572-1.572zm4.805 13.89h-3.233V270.72h3.233z" className="prefix__cls-2" data-name="Path 115" transform="translate(-76.988 -206.313)"/>
        <path id="prefix__Path_116" d="M167.809 229.248a1.572 1.572 0 0 0-1.572 1.572v21.923a1.572 1.572 0 0 0 1.572 1.572h6.377a1.572 1.572 0 0 0 1.572-1.572V230.82a1.572 1.572 0 0 0-1.572-1.572zm4.805 21.923h-3.233v-18.779h3.233z" className="prefix__cls-2" data-name="Path 116" transform="translate(-131.396 -176.018)"/>
        <path id="prefix__Path_117" d="M236.645 267.576a1.572 1.572 0 0 0-1.572 1.572v13.89a1.572 1.572 0 0 0 1.572 1.572h6.377a1.572 1.572 0 0 0 1.572-1.572v-13.89a1.572 1.572 0 0 0-1.572-1.572zm4.805 13.89h-3.233V270.72h3.233z" className="prefix__cls-2" data-name="Path 117" transform="translate(-185.805 -206.313)"/>
        <path id="prefix__Path_118" d="M305.481 311.832a1.572 1.572 0 0 0-1.572 1.572v4.614a1.572 1.572 0 0 0 1.572 1.572h6.377a1.572 1.572 0 0 0 0-3.144h-4.805V313.4a1.572 1.572 0 0 0-1.572-1.568z" className="prefix__cls-2" data-name="Path 118" transform="translate(-240.214 -241.293)"/>
        <path id="prefix__Path_119" d="M340.1 194.679l-9.018-15.62a20.555 20.555 0 1 0-20.325 5.8 20.658 20.658 0 0 0 5.351.709 20.287 20.287 0 0 0 4.627-.534l9.016 15.62a5.975 5.975 0 1 0 10.35-5.975zm-28.53-12.856a17.4 17.4 0 1 1 13.2-1.738 17.288 17.288 0 0 1-13.2 1.738zm24.771 18.3a2.835 2.835 0 0 1-3.868-1.036l-8.673-15.032a20.632 20.632 0 0 0 4.9-2.833l8.677 15.029a2.829 2.829 0 0 1-1.036 3.868z" className="prefix__cls-2" data-name="Path 119" transform="translate(-233.594 -109.011)"/>
        <path id="prefix__Path_120" d="M351.483 190.6a14.875 14.875 0 0 0-.744-10.776 1.572 1.572 0 1 0-2.844 1.34 11.773 11.773 0 1 1-3.549-4.386 1.572 1.572 0 1 0 1.9-2.507 14.927 14.927 0 1 0 5.241 16.329z" className="prefix__cls-2" data-name="Path 120" transform="translate(-254.751 -130.168)"/>
    </g>
</svg>
