<svg xmlns="http://www.w3.org/2000/svg" width="104.5" height="104.5" viewBox="0 0 104.5 104.5">
    <defs>
        <style>
            .prefix__cls-2{fill:#2c2f4b}
        </style>
    </defs>
    <g id="prefix__backend" style="opacity:.3">
        <g id="prefix__Group_91" data-name="Group 91" transform="translate(19.158 47.026)">
            <g id="prefix__Group_90" data-name="Group 90">
                <path id="prefix__Path_92" d="M94.967 216a6.967 6.967 0 1 0 6.967 6.967A6.967 6.967 0 0 0 94.967 216zm0 10.45a3.483 3.483 0 1 1 3.483-3.483 3.483 3.483 0 0 1-3.483 3.484z" className="prefix__cls-2" data-name="Path 92" transform="translate(-88 -216.001)"/>
            </g>
        </g>
        <g id="prefix__Group_93" data-name="Group 93">
            <g id="prefix__Group_92" data-name="Group 92">
                <path id="prefix__Path_93" d="M68.448 45.284h29.085a6.967 6.967 0 0 0 6.967-6.967V13.934a6.967 6.967 0 0 0-6.967-6.967H64.442V1.742A1.742 1.742 0 0 0 62.7 0H1.742A1.722 1.722 0 0 0 0 1.7v88.867a1.742 1.742 0 0 0 1.191 1.651l36.575 12.192a1.714 1.714 0 0 0 .55.091 1.742 1.742 0 0 0 1.742-1.742v-10.45h6.193a6.944 6.944 0 0 0 6 3.483h45.282a6.967 6.967 0 0 0 6.967-6.967V71.409a6.967 6.967 0 0 0-6.967-6.967H68.447l-4.006-2.674V47.957zm29.085-34.833a3.483 3.483 0 0 1 3.483 3.483V20.9H48.767v-6.966a3.483 3.483 0 0 1 3.483-3.483zm-60.958 89.89L3.483 89.311V4.16l33.092 11.03v85.152zm8.708-28.933v17.418h-5.224V13.934a1.742 1.742 0 0 0-1.191-1.651l-26.395-8.8h48.485v3.484H52.25a6.967 6.967 0 0 0-6.967 6.967v24.383a6.967 6.967 0 0 0 6.967 6.967h3.483v5.225a1.742 1.742 0 0 0 2.708 1.449l2.517-1.679v9.168l-2.517-1.679a1.742 1.742 0 0 0-2.708 1.449v5.225H52.25a6.966 6.966 0 0 0-6.966 6.967zm21.675-3.776a1.753 1.753 0 0 0 .967.293h29.608a3.483 3.483 0 0 1 3.483 3.483v17.418a3.483 3.483 0 0 1-3.483 3.483H52.25a3.483 3.483 0 0 1-3.483-3.483V71.409a3.483 3.483 0 0 1 3.483-3.483h5.225a1.742 1.742 0 0 0 1.742-1.742v-3.713zm-7.741-20.377v-3.713a1.742 1.742 0 0 0-1.742-1.742H52.25a3.483 3.483 0 0 1-3.483-3.483V24.384h52.25v13.933a3.483 3.483 0 0 1-3.484 3.483H67.925a1.753 1.753 0 0 0-.967.293z" className="prefix__cls-2" data-name="Path 93"/>
            </g>
        </g>
        <g id="prefix__Group_95" data-name="Group 95" transform="translate(53.992 34.834)">
            <g id="prefix__Group_94" data-name="Group 94">
                <path id="prefix__Rectangle_46" d="M0 0H42V3H0z" className="prefix__cls-2" data-name="Rectangle 46" transform="translate(.008 .167)"/>
            </g>
        </g>
        <g id="prefix__Group_97" data-name="Group 97" transform="translate(57.475 27.867)">
            <g id="prefix__Group_96" data-name="Group 96">
                <path id="prefix__Rectangle_47" d="M0 0H4V3H0z" className="prefix__cls-2" data-name="Rectangle 47" transform="translate(-.475 .133)"/>
            </g>
        </g>
        <g id="prefix__Group_99" data-name="Group 99" transform="translate(64.442 27.867)">
            <g id="prefix__Group_98" data-name="Group 98">
                <path id="prefix__Rectangle_48" d="M0 0H32V3H0z" className="prefix__cls-2" data-name="Rectangle 48" transform="translate(-.442 .133)"/>
            </g>
        </g>
        <g id="prefix__Group_101" data-name="Group 101" transform="translate(52.25 13.934)">
            <g id="prefix__Group_100" data-name="Group 100">
                <path id="prefix__Rectangle_49" d="M0 0H4V3H0z" className="prefix__cls-2" data-name="Rectangle 49" transform="translate(-.25 .067)"/>
            </g>
        </g>
        <g id="prefix__Group_103" data-name="Group 103" transform="translate(59.217 13.934)">
            <g id="prefix__Group_102" data-name="Group 102">
                <path id="prefix__Rectangle_50" d="M0 0H4V3H0z" className="prefix__cls-2" data-name="Rectangle 50" transform="translate(-.217 .067)"/>
            </g>
        </g>
        <g id="prefix__Group_105" data-name="Group 105" transform="translate(66.183 13.934)">
            <g id="prefix__Group_104" data-name="Group 104">
                <path id="prefix__Rectangle_51" d="M0 0H4V3H0z" className="prefix__cls-2" data-name="Rectangle 51" transform="translate(-.183 .067)"/>
            </g>
        </g>
        <g id="prefix__Group_107" data-name="Group 107" transform="translate(53.992 71.919)">
            <g id="prefix__Group_106" data-name="Group 106">
                <path id="prefix__Path_94" d="M254.458 332.808l-2.463-2.463-3.483 3.483a1.742 1.742 0 0 0 0 2.463l3.483 3.483 2.463-2.463-2.252-2.252z" className="prefix__cls-2" data-name="Path 94" transform="translate(-248.002 -330.345)"/>
            </g>
        </g>
        <g id="prefix__Group_109" data-name="Group 109" transform="translate(68.435 71.919)">
            <g id="prefix__Group_108" data-name="Group 108">
                <path id="prefix__Path_95" d="M320.29 333.828l-3.483-3.483-2.463 2.463 2.252 2.252-2.252 2.252 2.463 2.463 3.483-3.483a1.741 1.741 0 0 0 0-2.464z" className="prefix__cls-2" data-name="Path 95" transform="translate(-314.344 -330.345)"/>
            </g>
        </g>
        <g id="prefix__Group_111" data-name="Group 111" transform="translate(61.045 70.855)">
            <g id="prefix__Group_110" data-name="Group 110">
                <path id="prefix__Rectangle_52" d="M0 0H11.016V3.483H0z" className="prefix__cls-2" data-name="Rectangle 52" transform="rotate(-71.554 7.25 5.225)"/>
            </g>
        </g>
        <g id="prefix__Group_113" data-name="Group 113" transform="translate(78.375 74.892)">
            <g id="prefix__Group_112" data-name="Group 112">
                <path id="prefix__Rectangle_53" d="M0 0H4V3H0z" className="prefix__cls-2" data-name="Rectangle 53" transform="translate(-.375 .108)"/>
            </g>
        </g>
        <g id="prefix__Group_115" data-name="Group 115" transform="translate(53.992 85.342)">
            <g id="prefix__Group_114" data-name="Group 114">
                <path id="prefix__Rectangle_54" d="M0 0H3V4H0z" className="prefix__cls-2" data-name="Rectangle 54" transform="translate(.008 -.342)"/>
            </g>
        </g>
        <g id="prefix__Group_117" data-name="Group 117" transform="translate(60.958 85.342)">
            <g id="prefix__Group_116" data-name="Group 116">
                <path id="prefix__Rectangle_55" d="M0 0H35V4H0z" className="prefix__cls-2" data-name="Rectangle 55" transform="translate(.042 -.342)"/>
            </g>
        </g>
        <g id="prefix__Group_119" data-name="Group 119" transform="translate(85.342 74.892)">
            <g id="prefix__Group_118" data-name="Group 118">
                <path id="prefix__Rectangle_56" d="M0 0H4V3H0z" className="prefix__cls-2" data-name="Rectangle 56" transform="translate(-.342 .108)"/>
            </g>
        </g>
        <g id="prefix__Group_121" data-name="Group 121" transform="translate(92.308 74.892)">
            <g id="prefix__Group_120" data-name="Group 120">
                <path id="prefix__Rectangle_57" d="M0 0H4V3H0z" className="prefix__cls-2" data-name="Rectangle 57" transform="translate(-.308 .108)"/>
            </g>
        </g>
    </g>
</svg>
